<?xml version="1.0" encoding="utf-8"?>
<!-- Generator: Adobe Illustrator 23.0.5, SVG Export Plug-In . SVG Version: 6.00 Build 0)  -->
<svg version="1.1" id="Layer_1" xmlns="http://www.w3.org/2000/svg" xmlns:xlink="http://www.w3.org/1999/xlink" x="0px" y="0px"
	 viewBox="0 0 36 36" style="enable-background:new 0 0 36 36;" xml:space="preserve">
<g>
	<path d="M23.3,0.9l-5.1,2.5v10.2l5.1,2.5V0.9z"/>
	<path d="M24.4,30.3l-1,1.1H13.2l-1-1.1H1V32c0,2.2,1.6,4,3.5,4H32c1.9,0,3.5-1.8,3.5-4v-1.8H24.4z"/>
	<path d="M14,29.1h8.5l1-1.1h10V8.5h-3c0,2.5-1.8,4.6-4.1,4.6V20l-8.1-3.9v5h-2v2.3H8.1v-8h-2V8.5H3V28h10L14,29.1z"/>
	<path d="M28.4,8.5c0-1.3-0.9-2.3-2-2.3h-1v2.3v2.3h1C27.5,10.8,28.4,9.8,28.4,8.5z"/>
	<path d="M10.1,21.1h4.1v-2.9h2v-2.3h-2v-2.9h2V3.9H8.1v9.2h2V21.1z M10.6,7.4h3v2.3h-3V7.4z"/>
</g>
</svg>
