<?xml version="1.0" encoding="UTF-8"?>
<svg version="1.1" xmlns="http://www.w3.org/2000/svg" width="512" height="512">
<path d="M0 0 C0.99660645 0.19335938 1.99321289 0.38671875 3.02001953 0.5859375 C49.47365335 9.76476193 92.27640218 30.69306284 127 63 C128.39160821 64.2131969 129.78727188 65.42176214 131.1875 66.625 C137.65718811 72.27623359 143.48510243 78.41972449 149 85 C149.42410156 85.50499023 149.84820312 86.00998047 150.28515625 86.53027344 C162.55286827 101.23273332 173.13262709 117.02708256 182 134 C182.59095459 135.11689209 182.59095459 135.11689209 183.19384766 136.25634766 C194.72239556 158.31274906 202.50044698 182.55056543 207 207 C207.16081055 207.80066895 207.32162109 208.60133789 207.48730469 209.42626953 C212.9794441 237.50412453 212.73396692 270.98977935 207 299 C206.80664062 299.99660645 206.61328125 300.99321289 206.4140625 302.02001953 C198.47427489 342.20294157 181.8327458 380.10665992 156 412 C155.29746094 412.89460938 154.59492188 413.78921875 153.87109375 414.7109375 C131.81362352 442.41479514 104.3006232 464.5476448 73 481 C72.25105469 481.39687012 71.50210937 481.79374023 70.73046875 482.20263672 C48.67880409 493.72673427 24.44303189 501.5016253 0 506 C-0.80066895 506.16081055 -1.60133789 506.32162109 -2.42626953 506.48730469 C-30.50412453 511.9794441 -63.98977935 511.73396692 -92 506 C-93.49490967 505.70996094 -93.49490967 505.70996094 -95.02001953 505.4140625 C-135.20294157 497.47427489 -173.10665992 480.8327458 -205 455 C-205.89460938 454.29746094 -206.78921875 453.59492188 -207.7109375 452.87109375 C-235.41479514 430.81362352 -257.5476448 403.3006232 -274 372 C-274.39687012 371.25105469 -274.79374023 370.50210937 -275.20263672 369.73046875 C-286.72673427 347.67880409 -294.5016253 323.44303189 -299 299 C-299.24121582 297.79899658 -299.24121582 297.79899658 -299.48730469 296.57373047 C-304.9794441 268.49587547 -304.73396692 235.01022065 -299 207 C-298.70996094 205.50509033 -298.70996094 205.50509033 -298.4140625 203.97998047 C-289.23478744 157.52406603 -268.30554139 114.72686402 -236 80 C-234.80778787 78.6290837 -233.62008001 77.25423376 -232.4375 75.875 C-226.41738238 69.00076958 -219.96227821 62.98465851 -212.828125 57.2734375 C-211.02615055 55.82488898 -209.24248128 54.35305078 -207.484375 52.8515625 C-194.55811998 41.86821084 -180.01113241 32.84245309 -165 25 C-164.25540527 24.60603027 -163.51081055 24.21206055 -162.74365234 23.80615234 C-140.68725094 12.27760444 -116.44943457 4.49955302 -92 0 C-91.19933105 -0.16081055 -90.39866211 -0.32162109 -89.57373047 -0.48730469 C-61.49587547 -5.9794441 -28.01022065 -5.73396692 0 0 Z " fill="#16A1D3" transform="translate(302,3)"/>
<path d="M0 0 C1.1146312 -0.00637985 2.22926239 -0.0127597 3.37767029 -0.01933289 C5.19791466 -0.02100212 5.19791466 -0.02100212 7.05493164 -0.02270508 C8.91016197 -0.02769768 8.91016197 -0.02769768 10.8028717 -0.03279114 C13.42489244 -0.03786562 16.04691967 -0.0401993 18.66894531 -0.04003906 C21.36465131 -0.03995762 24.06018808 -0.0469229 26.75585938 -0.06054688 C30.62643688 -0.07878979 34.49681556 -0.08377219 38.36743164 -0.08520508 C39.57890366 -0.09239059 40.79037567 -0.09957611 42.03855896 -0.10697937 C43.15634232 -0.10390274 44.27412567 -0.10082611 45.42578125 -0.09765625 C46.41315781 -0.09908127 47.40053436 -0.10050629 48.41783142 -0.10197449 C50.77758789 0.14526367 50.77758789 0.14526367 52.77758789 2.14526367 C53.03930092 3.9999485 53.03930092 3.9999485 53.05606079 6.29605103 C53.06722427 7.16545822 53.07838776 8.03486542 53.08988953 8.93061829 C53.09204971 9.8865538 53.0942099 10.84248932 53.09643555 11.82739258 C53.10648117 12.8323024 53.11652679 13.83721222 53.12687683 14.87257385 C53.15785319 18.20565195 53.17478407 21.53864922 53.19165039 24.87182617 C53.21035041 27.17826032 53.22992293 29.48468755 53.25033569 31.79110718 C53.30178604 37.87052336 53.3413426 43.94996175 53.378479 50.02947998 C53.41843794 56.22958936 53.46956717 62.42960532 53.51977539 68.62963867 C53.61668738 80.80144817 53.70104312 92.97331026 53.77758789 105.14526367 C54.09383181 104.68491919 54.41007572 104.2245747 54.73590279 103.75028038 C56.18208321 101.6453344 57.62851511 99.54056134 59.07495117 97.43579102 C59.57243362 96.71161484 60.06991608 95.98743866 60.58247375 95.24131775 C63.91136559 90.39780342 67.25646593 85.56695982 70.65258789 80.77026367 C71.14251221 80.07658691 71.63243652 79.38291016 72.13720703 78.66821289 C75.79095723 73.50705222 79.49864249 68.38636587 83.21508789 63.27026367 C87.67348328 57.13015782 92.01511424 50.92285318 96.27758789 44.64526367 C102.1065892 36.06094234 108.14504879 27.64449265 114.25073242 19.25561523 C115.75013123 17.18321304 117.23384893 15.1006282 118.71118164 13.01245117 C119.39531128 12.04625854 119.39531128 12.04625854 120.09326172 11.06054688 C120.93785225 9.86539537 121.78030067 8.6687258 122.62011719 7.47021484 C126.63271393 1.80074822 126.63271393 1.80074822 128.77758789 0.14526367 C131.49211121 -0.21549988 131.49211121 -0.21549988 134.80957031 -0.1953125 C136.67116035 -0.19497261 136.67116035 -0.19497261 138.57035828 -0.19462585 C139.92459473 -0.17930601 141.2788275 -0.16365802 142.63305664 -0.14770508 C144.01881959 -0.14210884 145.40458849 -0.13783887 146.7903595 -0.13484192 C150.43521553 -0.12339516 154.07971212 -0.09392991 157.72442627 -0.06072998 C161.44457131 -0.03002518 165.1647745 -0.01633574 168.88500977 -0.0012207 C176.18269956 0.03094036 183.48009333 0.08213416 190.77758789 0.14526367 C191.88876343 4.90148926 191.88876343 4.90148926 190.88818359 7.09545898 C190.41469482 7.71517578 189.94120605 8.33489258 189.45336914 8.97338867 C188.92549805 9.68172852 188.39762695 10.39006836 187.85375977 11.11987305 C187.27174805 11.87075195 186.68973633 12.62163086 186.09008789 13.39526367 C184.87681342 15.01428032 183.66459706 16.63409037 182.45336914 18.25463867 C181.8354248 19.07254883 181.21748047 19.89045898 180.58081055 20.7331543 C177.90191526 24.31662105 175.3389888 27.97738236 172.77758789 31.64526367 C168.65576635 37.51158777 164.48430914 43.33955112 160.27758789 49.14526367 C154.03715537 57.76053003 147.89557433 66.44278131 141.77758789 75.14526367 C134.90244096 84.9247631 127.98486518 94.66957554 120.96533203 104.34619141 C120.44704834 105.06105713 119.92876465 105.77592285 119.39477539 106.51245117 C118.93699707 107.1426416 118.47921875 107.77283203 118.00756836 108.42211914 C115.44029193 111.65569609 115.44029193 111.65569609 114.99023438 115.58154297 C115.80262476 118.22678683 116.75349162 119.93587308 118.37524414 122.16479492 C118.92132324 122.92751709 119.46740234 123.69023926 120.0300293 124.47607422 C120.9260083 125.7045105 120.9260083 125.7045105 121.84008789 126.95776367 C127.34659803 134.65415183 132.68559932 142.43723937 137.90258789 150.33276367 C143.07160917 158.13811613 148.33248016 165.85812264 153.76464844 173.48242188 C157.14251175 178.22672912 160.40412659 183.03493956 163.61352539 187.89526367 C166.32083559 191.96111581 169.07831935 195.99127745 171.84008789 200.02026367 C172.38681152 200.81811279 172.93353516 201.61596191 173.49682617 202.43798828 C174.64961561 204.12022776 175.80244893 205.80243716 176.95532227 207.48461914 C181.43613466 214.02694142 185.90717028 220.57579324 190.35961914 227.13745117 C192.38871357 230.12434079 194.43837269 233.09132053 196.53930664 236.02807617 C197.27793945 237.07737305 198.01657227 238.12666992 198.77758789 239.20776367 C199.39633789 240.06499023 200.01508789 240.9222168 200.65258789 241.80541992 C202.05141177 244.71477931 201.7820672 246.12659407 200.77758789 249.14526367 C198.98371631 250.93913525 196.29172178 250.31030038 193.8684082 250.33813477 C192.60329407 250.35419769 191.33817993 250.37026062 190.034729 250.3868103 C188.64173044 250.3982981 187.24872439 250.40890658 185.85571289 250.41870117 C185.15678673 250.42402485 184.45786057 250.42934853 183.73775482 250.43483353 C180.03619991 250.46158736 176.33467893 250.48095233 172.63305664 250.49536133 C168.81168141 250.51198746 164.99117234 250.55673986 161.17012405 250.60773277 C158.23096752 250.64142236 155.29201574 250.65294067 152.35268402 250.65858841 C150.94445958 250.66529964 149.53624856 250.6805188 148.12821198 250.70447922 C146.15382732 250.7361515 144.17897947 250.7331643 142.2043457 250.72875977 C141.08151184 250.73684662 139.95867798 250.74493347 138.80181885 250.75326538 C134.17659787 249.82339518 132.18339717 246.9540129 129.38439941 243.35275269 C128.8394281 242.52470627 128.8394281 242.52470627 128.28344727 241.67993164 C127.85574036 241.03658875 127.42803345 240.39324585 126.98736572 239.73040771 C126.53657654 239.03973206 126.08578735 238.3490564 125.62133789 237.63745117 C125.13042664 236.89617981 124.63951538 236.15490845 124.13372803 235.39117432 C123.06918804 233.78256101 122.00724819 232.1722246 120.94763184 230.56036377 C118.05383174 226.15895748 115.14063398 221.77039586 112.23071289 217.37963867 C111.62257751 216.46082916 111.01444214 215.54201965 110.38787842 214.59536743 C103.11261239 203.61188798 95.73121604 192.70026257 88.34863281 181.78875732 C76.74091819 164.63025806 65.25697861 147.38974404 53.77758789 130.14526367 C53.77427774 130.7515605 53.7709676 131.35785732 53.76755714 131.98252678 C53.6864102 146.72093475 53.59434525 161.45924636 53.49006081 176.19750786 C53.43989456 183.32476521 53.39345223 190.45201082 53.35571289 197.5793457 C53.31931 204.45232167 53.2726139 211.32516531 53.21952438 218.19803238 C53.20093288 220.82556072 53.1858427 223.45311615 53.17424393 226.08068466 C53.15746272 229.74931628 53.12844754 233.41765588 53.09643555 237.08618164 C53.09427536 238.18237823 53.09211517 239.27857483 53.08988953 240.4079895 C53.07872604 241.40360901 53.06756256 242.39922852 53.05606079 243.42501831 C53.04776465 244.7275118 53.04776465 244.7275118 53.03930092 246.05631828 C52.77758789 248.14526367 52.77758789 248.14526367 50.77758789 250.14526367 C48.41110229 250.38577271 48.41110229 250.38577271 45.40991211 250.37231445 C43.72839554 250.37208786 43.72839554 250.37208786 42.01290894 250.37185669 C40.79829987 250.36153412 39.5836908 250.35121155 38.33227539 250.34057617 C37.09212677 250.33774628 35.85197815 250.33491638 34.57424927 250.33200073 C31.27634157 250.32268542 27.97862817 250.30471257 24.68078613 250.28259277 C21.31594219 250.26213841 17.95106983 250.25299991 14.58618164 250.24291992 C7.98324066 250.22082886 1.38043018 250.1873285 -5.22241211 250.14526367 C-6.36756524 247.85495741 -6.34770153 246.5898759 -6.34825325 244.04447079 C-6.350861 243.18070668 -6.35346874 242.31694258 -6.35615551 241.4270038 C-6.35280943 239.99516916 -6.35280943 239.99516916 -6.34939575 238.53440857 C-6.35095574 237.52476785 -6.35251573 236.51512714 -6.354123 235.47489125 C-6.35813212 232.06999757 -6.35494368 228.66514797 -6.35180664 225.26025391 C-6.35316071 222.82811456 -6.35494068 220.39597542 -6.3571167 217.96383667 C-6.3612145 212.03078956 -6.36059913 206.09775403 -6.35770406 200.16470724 C-6.35544922 195.34496777 -6.35513785 190.52523186 -6.35622787 185.70549202 C-6.35638111 185.0205375 -6.35653434 184.33558297 -6.35669222 183.62987225 C-6.35701193 182.23858205 -6.35733614 180.84729185 -6.35766481 179.45600165 C-6.36051878 166.39910623 -6.35723376 153.34221783 -6.35186444 140.28532357 C-6.34739548 129.07042053 -6.34817326 117.85552785 -6.3527832 106.640625 C-6.3581287 93.63013207 -6.36024515 80.61964529 -6.35717094 67.60915142 C-6.35685238 66.22317414 -6.356538 64.83719685 -6.35622787 63.45121956 C-6.3560736 62.76921501 -6.35591932 62.08721046 -6.35576037 61.38453911 C-6.35489522 56.56744329 -6.35635804 51.75035136 -6.35870743 46.93325615 C-6.36179672 40.45647889 -6.3596131 33.97971664 -6.35381317 27.50294113 C-6.35248485 25.11838756 -6.35288089 22.73383234 -6.35507584 20.3492794 C-6.35778451 17.10920858 -6.35440971 13.86920181 -6.34939575 10.62913513 C-6.35162647 9.67234798 -6.3538572 8.71556084 -6.35615551 7.72978014 C-6.33282234 0.02446777 -6.33282234 0.02446777 0 0 Z " fill="#FEFEFE" transform="translate(158.222412109375,130.854736328125)"/>
</svg>
