<?xml version="1.0" encoding="utf-8"?>
<!-- Generator: Adobe Illustrator 23.0.5, SVG Export Plug-In . SVG Version: 6.00 Build 0)  -->
<svg version="1.1" id="Layer_1" xmlns="http://www.w3.org/2000/svg" xmlns:xlink="http://www.w3.org/1999/xlink" x="0px" y="0px"
	 viewBox="0 0 20 20" style="enable-background:new 0 0 20 20;" xml:space="preserve">
<style type="text/css">
	.st0{fill:#FFFFFF;}
</style>
<g id="Outline_Filled">
	<path id="Cat_3_" class="st0" d="M12.1,16.3h-1.6H9c0,0,0-0.9,0-1.6c-2.2,0.5-2.8-1.2-2.8-1.2c-0.4-0.8-0.8-1.2-0.8-1.2
		c-0.8-0.5,0-0.4,0-0.4c0.8,0,1.2,0.8,1.2,0.8c0.7,1.2,1.9,1,2.4,0.8c0-0.4,0.2-1,0.4-1.2c-1.7-0.2-3.2-1.2-3.2-3.2S6.6,6.8,7,6.4
		c-0.1-0.2-0.4-0.9,0-2c0,0,0.8,0,1.6,1.2c0.4-0.4,1.6-0.4,2-0.4c0.4,0,1.6,0,2,0.4c0.8-1.2,1.6-1.2,1.6-1.2c0.4,1.1,0.1,1.8,0,2
		c0.4,0.4,0.8,0.8,0.8,2.8s-1.4,3-3.2,3.2c0.2,0.2,0.4,0.9,0.4,1.2L12.1,16.3z"/>
</g>
</svg>
