<?xml version="1.0" encoding="UTF-8"?>
<svg version="1.1" xmlns="http://www.w3.org/2000/svg" width="700" height="300">
<path d="M0 0 C0.495 1.485 0.495 1.485 1 3 C-2.38353093 6.50701746 -5.86524159 9.56127084 -9.75 12.5 C-10.58047852 13.13240601 -10.58047852 13.13240601 -11.42773438 13.77758789 C-13.96445177 15.70838146 -16.50879698 17.62902721 -19.05273438 19.55029297 C-28.60935853 26.77501275 -37.95347152 34.14447107 -47 42 C-47.73476562 42.63421875 -48.46953125 43.2684375 -49.2265625 43.921875 C-51.16188171 45.60274985 -53.08328282 47.29795515 -55 49 C-55.78890625 49.69609375 -56.5778125 50.3921875 -57.390625 51.109375 C-63.12292921 56.20866402 -68.74092722 61.40918608 -74 67 C-74.86367187 67.83402344 -75.72734375 68.66804688 -76.6171875 69.52734375 C-80.22894873 73.91687321 -80.53567439 79.41368058 -81.3125 84.875 C-81.48072266 85.94492188 -81.64894531 87.01484375 -81.82226562 88.1171875 C-82.23248884 90.74261607 -82.62443173 93.36942936 -83 96 C-58.56927178 96.65504435 -35.46725511 93.78680257 -12 87 C-13 90 -13 90 -15.08984375 91.24609375 C-35.57977436 99.81869846 -61.99401382 104.39416657 -84 100 C-84.03738281 100.64324219 -84.07476562 101.28648437 -84.11328125 101.94921875 C-84.65262095 109.36249575 -85.48450711 116.96951986 -88 124 C-89.485 124.495 -89.485 124.495 -91 125 C-90.38722068 118.87220677 -89.50052605 112.85691745 -88.40234375 106.796875 C-88.02167416 104.15066695 -87.92695805 101.6684659 -88 99 C-88.969375 98.566875 -89.93875 98.13375 -90.9375 97.6875 C-94 96 -94 96 -95 93 C-93.72837801 84.48013265 -89.05916851 76.05916851 -83 70 C-82.40254749 67.23738614 -82.40254749 67.23738614 -82.05444336 63.94555664 C-81.8976561 62.67406265 -81.74086884 61.40256866 -81.57933044 60.09254456 C-81.41607979 58.69842547 -81.25291975 57.30429577 -81.08984375 55.91015625 C-80.91657609 54.48520337 -80.7424567 53.06035382 -80.56752014 51.63560486 C-80.10844249 47.88112406 -79.65917792 44.12553735 -79.21246338 40.36956787 C-78.49630311 34.36065729 -77.7660885 28.3534461 -77.03445625 22.34640312 C-76.78026447 20.2467814 -76.53067739 18.14665036 -76.28172302 16.04640198 C-76.12808792 14.77175583 -75.97445282 13.49710968 -75.81616211 12.18383789 C-75.68229599 11.05957901 -75.54842987 9.93532013 -75.4105072 8.7769928 C-75 6 -75 6 -74 3 C-72.68 3.33 -71.36 3.66 -70 4 C-70.61918878 15.62577959 -72.35681049 27.05720641 -74.0625 38.5625 C-74.48577688 41.42955644 -74.90773575 44.29678402 -75.32627869 47.16453552 C-75.58491774 48.93568086 -75.84631591 50.70642612 -76.1108551 52.47669983 C-76.22775192 53.2753093 -76.34464874 54.07391876 -76.46508789 54.89672852 C-76.62044762 55.94377708 -76.62044762 55.94377708 -76.77894592 57.01197815 C-77.0736746 59.32920421 -77.0736746 59.32920421 -77 63 C-76.29875 62.21496094 -75.5975 61.42992187 -74.875 60.62109375 C-70.20107841 55.42895131 -65.5684091 50.38350519 -60.203125 45.890625 C-57.9125148 43.92492405 -55.71799364 41.87103116 -53.52270508 39.80004883 C-46.8646033 33.53655969 -39.92332999 27.79203971 -32.64941406 22.25976562 C-31.12834879 21.09802839 -29.622034 19.91704569 -28.1171875 18.734375 C-19.18190301 11.81512963 -9.60880336 5.92925374 0 0 Z M-85 80 C-86.03572896 81.74122549 -87.0531252 83.49336595 -88.0625 85.25 C-88.63097656 86.22453125 -89.19945312 87.1990625 -89.78515625 88.203125 C-91.22561487 90.86019275 -91.22561487 90.86019275 -90.68359375 93.359375 C-90.45800781 93.90078125 -90.23242188 94.4421875 -90 95 C-88.02 95.495 -88.02 95.495 -86 96 C-84.80911014 90.61972975 -83.7080481 85.54708616 -84 80 C-84.33 80 -84.66 80 -85 80 Z " fill="#010101" transform="translate(268,118)"/>
<path d="M0 0 C0.99 0.33 1.98 0.66 3 1 C2.688288 3.52093298 2.37565098 6.0417457 2.0625 8.5625 C1.97548828 9.26697266 1.88847656 9.97144531 1.79882812 10.69726562 C1.24615509 15.13911927 0.64605404 19.57074664 0 24 C0.43570313 23.39671875 0.87140625 22.7934375 1.3203125 22.171875 C9.0252422 11.83192605 9.0252422 11.83192605 15.6875 10.4375 C18 11 18 11 19.8125 13.3125 C21 16 21 16 21 19 C21.52319824 18.74307373 22.04639648 18.48614746 22.58544922 18.22143555 C25.01155052 17.03560847 27.44317714 15.86154621 29.875 14.6875 C31.10863281 14.08131836 31.10863281 14.08131836 32.3671875 13.46289062 C38.11549589 10.70100808 43.84165679 8.65245866 50 7 C50.33 7.99 50.66 8.98 51 10 C50.07960938 10.35191406 49.15921875 10.70382813 48.2109375 11.06640625 C40.13964628 14.19957477 32.40666477 17.67245297 24.73046875 21.6796875 C22 23 22 23 20 23 C19.95875 23.66 19.9175 24.32 19.875 25 C18.31401634 30.35194398 14.85637843 34.59639679 10.4375 37.9375 C7.86877428 39.05720095 5.79934517 39.78466576 3 40 C0.6875 39.0625 0.6875 39.0625 -1 38 C-0.52011774 33.6810597 1.818895 31.78346687 5 29 C13.21276596 23 13.21276596 23 16 23 C16 20.36 16 17.72 16 15 C8.27841126 16.8719003 3.96801915 24.70642997 0 31 C-4.79366233 39.21007574 -7.00817842 48.34477003 -9.45703125 57.4609375 C-10.70688038 62.10595849 -12.2241352 66.5310069 -14 71 C-15.98 70.505 -15.98 70.505 -18 70 C-16.62378906 61.4703593 -14.29729175 53.91043223 -11.0625 45.9375 C-6.85826746 35.50555622 -4.70725692 25.08593803 -3 14 C-3.81154541 14.41362793 -4.62309082 14.82725586 -5.45922852 15.25341797 C-8.49648695 16.79774256 -11.5364528 18.33646576 -14.57836914 19.87158203 C-15.88970274 20.53475185 -17.19994741 21.20007979 -18.5090332 21.86767578 C-20.40027205 22.83166724 -22.29540364 23.78760637 -24.19140625 24.7421875 C-25.32779541 25.3182373 -26.46418457 25.89428711 -27.63500977 26.48779297 C-33.31108837 29.03858967 -37.87337742 30.67089707 -44 29 C-47 27 -47 27 -47.51171875 25.0546875 C-47.67447917 23.03645833 -47.83723958 21.01822917 -48 19 C-48.6297876 19.32274902 -49.2595752 19.64549805 -49.90844727 19.97802734 C-52.78989758 21.45011577 -55.67611454 22.91261345 -58.5625 24.375 C-59.55314453 24.88289063 -60.54378906 25.39078125 -61.56445312 25.9140625 C-75.6210892 33.01243022 -75.6210892 33.01243022 -83 31 C-86 29 -86 29 -86.875 26.3125 C-87.06831551 21.18963911 -85.25830092 17.64880811 -82.1875 13.625 C-79.44731703 11.58943551 -77.38013805 11.22044379 -74 11 C-73.34 11.33 -72.68 11.66 -72 12 C-71.5625 15.125 -71.5625 15.125 -72 19 C-74.80677083 22.34247172 -78.39419051 24.59612701 -82 27 C-76.47943852 27.34103855 -72.48967947 26.32347597 -67.5625 24 C-66.53902466 23.5344873 -66.53902466 23.5344873 -65.49487305 23.05957031 C-52.56525745 17.19757888 -52.56525745 17.19757888 -40.21875 10.24609375 C-38 9 -38 9 -35.1875 9.3125 C-34.465625 9.539375 -33.74375 9.76625 -33 10 C-32.5625 13.125 -32.5625 13.125 -33 17 C-35.80677083 20.34247172 -39.39419051 22.59612701 -43 25 C-37.49309074 25.3397579 -33.53234214 24.33275475 -28.625 22 C-27.94743652 21.68530762 -27.26987305 21.37061523 -26.57177734 21.04638672 C-25.13073617 20.37680204 -23.69148004 19.70336415 -22.25390625 19.02636719 C-19.94245256 17.97379447 -17.6068756 17.01634153 -15.25 16.0703125 C-13.70814305 15.42232759 -12.16647133 14.77390173 -10.625 14.125 C-9.89361816 13.8465625 -9.16223633 13.568125 -8.40869141 13.28125 C-5.24585711 11.89990296 -3.42559366 11.07744632 -2.12011719 7.77246094 C-1.55695461 5.33010798 -1.55695461 5.33010798 -1.26708984 2.92138672 C-1 1 -1 1 0 0 Z M-40.5625 14.1875 C-43.01134483 17.01309018 -43.68762137 18.35558268 -44 22 C-39.42251491 19.1204024 -39.42251491 19.1204024 -36 15 C-36 14.01 -36 13.02 -36 12 C-38.30801316 11.78357921 -38.30801316 11.78357921 -40.5625 14.1875 Z M-79.5625 16.1875 C-82.01134483 19.01309018 -82.68762137 20.35558268 -83 24 C-78.42251491 21.1204024 -78.42251491 21.1204024 -75 17 C-75 16.01 -75 15.02 -75 14 C-77.30801316 13.78357921 -77.30801316 13.78357921 -79.5625 16.1875 Z M13 27 C11.51726301 28.12029017 10.03891114 29.24638618 8.5625 30.375 C7.73878906 31.00148437 6.91507812 31.62796875 6.06640625 32.2734375 C3.91471908 33.83753904 3.91471908 33.83753904 3 36 C8.40049736 35.68232368 10.52337065 32.80003673 14 29 C13.67 28.34 13.34 27.68 13 27 Z " fill="#020202" transform="translate(466,174)"/>
<path d="M0 0 C0.99 0 1.98 0 3 0 C2.63619309 4.58396709 2.25029018 8.30408933 0.68359375 12.66015625 C-1.70077963 19.5810741 -2.83763617 26.81093116 -4.16210938 33.99267578 C-4.62412468 36.49525866 -5.09643594 38.99573266 -5.5703125 41.49609375 C-5.87300432 43.11186529 -6.17510741 44.72774726 -6.4765625 46.34375 C-6.68437851 47.44571716 -6.68437851 47.44571716 -6.89639282 48.56994629 C-7.83675631 53.69803955 -8.46967226 58.81315158 -9 64 C-7.68 63.67 -6.36 63.34 -5 63 C-6.36983503 66.16115776 -6.9890638 66.9927092 -10 69 C-10.69774395 71.59993512 -10.69774395 71.59993512 -10.94921875 74.6875 C-11.07514404 75.8537793 -11.20106934 77.02005859 -11.33081055 78.22167969 C-11.50737183 80.09194824 -11.50737183 80.09194824 -11.6875 82 C-11.81487549 83.25973633 -11.94225098 84.51947266 -12.07348633 85.81738281 C-13.00246312 95.57444292 -13.34966587 105.20935557 -13 115 C-13.99 114.67 -14.98 114.34 -16 114 C-16.99202606 111.02392182 -17.12892292 109.05505168 -17.1328125 105.94921875 C-17.13474609 104.94632812 -17.13667969 103.9434375 -17.13867188 102.91015625 C-17.13416016 101.84667969 -17.12964844 100.78320312 -17.125 99.6875 C-17.12306641 98.60984375 -17.12113281 97.5321875 -17.11914062 96.421875 C-17.07675039 88.57497141 -16.77026473 80.81268515 -16 73 C-17.28970703 73.94359375 -17.28970703 73.94359375 -18.60546875 74.90625 C-46.59585595 95.23858858 -46.59585595 95.23858858 -57 94 C-59 92 -59 92 -59.23046875 90.046875 C-59.1472759 85.59983917 -58.89765291 81.37605795 -58 77 C-58.65355469 77.68835938 -58.65355469 77.68835938 -59.3203125 78.390625 C-62.95865748 82.13922285 -66.34591381 85.57178112 -71 88 C-73.875 87.75 -73.875 87.75 -76 87 C-76.6245091 79.8181454 -74.37258633 73.76672062 -70.55078125 67.69921875 C-69.78314453 66.85810547 -69.78314453 66.85810547 -69 66 C-68.01 66 -67.02 66 -66 66 C-66.86596176 70.25108502 -68.84336318 73.74780886 -70.84375 77.5625 C-71.8720798 79.73033039 -72.52311217 81.65891431 -73 84 C-66.97821183 80.99298094 -63.02302384 77.24389865 -58.5625 72.25 C-57.92634766 71.55261719 -57.29019531 70.85523438 -56.63476562 70.13671875 C-55.08155177 68.431687 -53.53707052 66.71957567 -52 65 C-50.515 65.495 -50.515 65.495 -49 66 C-49.4125 67.175625 -49.825 68.35125 -50.25 69.5625 C-52.50001891 76.2802598 -54.22104802 83.14606828 -56 90 C-47.19858534 88.78601177 -40.38190462 84.67152836 -33 80 C-32.25427734 79.53706543 -31.50855469 79.07413086 -30.74023438 78.59716797 C-28.38680976 77.11869693 -26.06630841 75.59835589 -23.75 74.0625 C-23.01072266 73.59730957 -22.27144531 73.13211914 -21.50976562 72.65283203 C-20.82076172 72.18087402 -20.13175781 71.70891602 -19.421875 71.22265625 C-18.80924805 70.81797119 -18.19662109 70.41328613 -17.56542969 69.99633789 C-15.02237041 66.75326308 -14.69506823 62.99494232 -14 59 C-13.8670755 58.29268234 -13.734151 57.58536469 -13.59719849 56.85661316 C-13.19947689 54.72064116 -12.82277226 52.58172891 -12.44921875 50.44140625 C-12.15991237 48.8208908 -11.87018471 47.20045051 -11.58007812 45.58007812 C-11.13529879 43.08703043 -10.69293374 40.59367218 -10.25805664 38.09887695 C-8.65877855 28.94932762 -6.86009544 19.92498454 -4.39453125 10.96484375 C-4.18720871 10.20708145 -3.97988617 9.44931915 -3.76628113 8.66859436 C-2.82546294 5.37283286 -1.91644084 2.87466125 0 0 Z " fill="#020202" transform="translate(340,125)"/>
<path d="M0 0 C1.32 0.33 2.64 0.66 4 1 C5.11043292 4.36482375 5.04458152 4.89439346 3.56298828 8.40405273 C2.86341729 9.77131904 2.15703615 11.1351139 1.4453125 12.49609375 C-3.28763401 22.04439161 -6.26211377 31.82606773 -9.125 42.0625 C-9.6437508 43.88040796 -10.16320787 45.69811452 -10.68334961 47.515625 C-20.89228582 80.21352863 -20.89228582 80.21352863 -24 114 C-25.32 113.67 -26.64 113.34 -28 113 C-28.29591906 105.52290618 -27.46648438 98.63636597 -26 91.3125 C-25.78577393 90.21486328 -25.57154785 89.11722656 -25.35083008 87.98632812 C-23.16917541 77.18136853 -20.43033968 66.52769512 -17.59179688 55.88012695 C-17.25599609 54.62031006 -16.92019531 53.36049316 -16.57421875 52.0625 C-16.27088623 50.93972656 -15.96755371 49.81695312 -15.6550293 48.66015625 C-14.92030156 46.13293726 -14.92030156 46.13293726 -15 44 C-16.31582063 46.26896632 -17.62775236 48.54003187 -18.9375 50.8125 C-19.31068359 51.45509766 -19.68386719 52.09769531 -20.06835938 52.75976562 C-21.63466635 55.48316424 -23.00369374 58.01108122 -24 61 C-22.68 61.66 -21.36 62.32 -20 63 C-20.99 63.99 -20.99 63.99 -22 65 C-23.65 64.34 -25.3 63.68 -27 63 C-27.25265625 63.68449219 -27.5053125 64.36898437 -27.765625 65.07421875 C-31.2388245 73.30658085 -36.48012347 83.78462319 -43 90 C-45.06640625 90.7578125 -45.06640625 90.7578125 -47 91 C-48.6875 90.0625 -48.6875 90.0625 -50 88 C-51.81580001 80.60709997 -50.50940182 74.24944548 -46.63671875 67.69140625 C-43.94260996 63.89737707 -41.42775164 60.71072223 -37 59 C-36.27433838 59.03786621 -35.54867676 59.07573242 -34.80102539 59.11474609 C-31.84194272 59.22788327 -29.78946468 59.03230708 -27 58 C-23.75615264 54.26736962 -21.79248988 50.01173808 -19.6875 45.5625 C-18.81641602 43.83483398 -18.81641602 43.83483398 -17.92773438 42.07226562 C-16.78256901 39.7909927 -15.65539415 37.50059275 -14.54711914 35.20117188 C-13.19354925 32.40047621 -11.78349331 29.63991746 -10.3515625 26.87890625 C-7.67542208 21.53804565 -5.66780578 16.00402858 -3.6875 10.375 C-3.32849609 9.37082031 -2.96949219 8.36664063 -2.59960938 7.33203125 C-1.72744117 4.88996026 -0.86101699 2.44601994 0 0 Z M-41.421875 67.578125 C-45.74915358 73.22904173 -47.34839144 78.85797547 -47 86 C-46.01 86 -45.02 86 -44 86 C-39.46988621 80.99717868 -29 68.92836965 -29 62 C-34.42675057 61.36155876 -37.82716979 63.58839724 -41.421875 67.578125 Z " fill="#020202" transform="translate(387,128)"/>
</svg>
