<?xml version="1.0" encoding="utf-8"?>
<!-- Generator: Adobe Illustrator 23.0.5, SVG Export Plug-In . SVG Version: 6.00 Build 0)  -->
<svg version="1.1" id="Layer_1" xmlns="http://www.w3.org/2000/svg" xmlns:xlink="http://www.w3.org/1999/xlink" x="0px" y="0px"
	 viewBox="0 0 36 36" style="enable-background:new 0 0 36 36;" xml:space="preserve">
<g>
	<path d="M5.9,25.9c-1.6,1.3-1.7,3.9-0.2,5.3v0c1.4,1.5,4,1.4,5.3-0.2l0.4-0.4l-5-5L5.9,25.9z"/>
	<ellipse cx="28" cy="15.1" rx="2" ry="2"/>
	<path d="M22.1,2.3c-6.9,0-12.4,5.6-12.4,12.4c0,2.4,0.7,4.6,1.8,6.4l-3.8,3.2l4.8,4.8l3.2-3.8c1.9,1.1,4.1,1.8,6.4,1.8
		c6.9,0,12.4-5.6,12.4-12.4C34.6,7.9,29,2.3,22.1,2.3L22.1,2.3z M13,16.5c0.3-0.3,0.8-0.3,1.1,0.1c0.3,0.4,0.8,0.6,1.4,0.6
		c0.5,0,0.9-0.3,0.9-0.6c0.1-0.4-0.5-0.6-0.7-0.7c-1-0.4-1.4-0.4-1.8-0.7c-0.6-0.4-0.9-1.1-0.8-1.9c0.1-0.8,0.7-1.4,1.5-1.7
		c1.6-0.5,2.9,0.6,2.9,0.6c0.3,0.3,0.4,0.8,0.1,1.1c-0.3,0.3-0.8,0.4-1.1,0.1l0,0c0,0-0.7-0.6-1.5-0.3c-0.3,0.1-0.4,0.3-0.4,0.4
		c0,0.1,0.1,0.3,0.2,0.3c0.3,0.1,0.8,0.4,1.4,0.6c1.5,0.5,1.8,1.6,1.7,2.4c-0.2,1.1-1.2,1.9-2.4,1.9c-1,0-1.9-0.4-2.5-1.1
		C12.6,17.3,12.7,16.8,13,16.5L13,16.5z M22.3,14.3c0.4,0,0.8,0.4,0.8,0.8c0,0.4-0.4,0.8-0.8,0.8h-1.4v1.2h1.6
		c0.4,0,0.8,0.4,0.8,0.8s-0.4,0.8-0.8,0.8h-2.3c-0.4,0-0.8-0.4-0.8-0.8v-5.6c0-0.4,0.4-0.8,0.8-0.8h2.3c0.4,0,0.8,0.4,0.8,0.8
		c0,0.4-0.4,0.8-0.8,0.8h-1.6v1.2H22.3z M28,18.7c-2,0-3.6-1.6-3.6-3.6s1.6-3.6,3.6-3.6s3.6,1.6,3.6,3.6S30,18.7,28,18.7z"/>
</g>
</svg>
